<?xml version="1.0" encoding="UTF-8"?>
<svg version="1.1" xmlns="http://www.w3.org/2000/svg" width="225" height="225">
<path d="M0 0 C74.25 0 148.5 0 225 0 C225 74.25 225 148.5 225 225 C150.75 225 76.5 225 0 225 C0 150.75 0 76.5 0 0 Z " fill="#E54D42" transform="translate(0,0)"/>
<path d="M0 0 C74.25 0 148.5 0 225 0 C225 74.25 225 148.5 225 225 C150.75 225 76.5 225 0 225 C0 150.75 0 76.5 0 0 Z M46 46 C45.17113281 46.80695312 44.34226562 47.61390625 43.48828125 48.4453125 C27.50152253 64.84826555 19.0856737 87.55373712 18.40625 110.2578125 C17.94487226 113.37211227 16.99609821 114.62708733 15 117 C13.98145601 120.05563197 13.85548115 122.18501328 13.82299805 125.38598633 C13.81016281 126.48755569 13.79732758 127.58912506 13.78410339 128.72407532 C13.77671646 129.91470078 13.76932953 131.10532623 13.76171875 132.33203125 C13.753647 133.55653488 13.74557526 134.78103851 13.73725891 136.04264832 C13.72341973 138.63592106 13.71269684 141.22921201 13.70483398 143.82250977 C13.68761373 147.78632111 13.6437232 151.74930015 13.59960938 155.71289062 C13.58948312 158.2317647 13.58096681 160.75064586 13.57421875 163.26953125 C13.55671066 164.45408401 13.53920258 165.63863678 13.52116394 166.85908508 C13.53789362 173.21241659 13.65092917 177.21118591 18 182 C23.12901095 186.61610985 26.50464187 188.25461038 33.42578125 188.09765625 C58.23125487 187.93799828 58.23125487 187.93799828 68.55859375 195.640625 C72.46996872 198.53553038 76.70936663 199.96671273 81.3125 201.4375 C82.03018555 201.67170654 82.74787109 201.90591309 83.48730469 202.1472168 C92.908878 205.07820463 101.88131321 206.36781775 111.75 206.3125 C113.33651367 206.30404053 113.33651367 206.30404053 114.95507812 206.29541016 C138.53674303 205.93033533 159.43876542 196.51988088 177 181 C177.62390625 180.45988281 178.2478125 179.91976562 178.890625 179.36328125 C195.44634798 164.00668774 205.38920983 140.54088969 206.23828125 118.171875 C206.55913153 102.36854019 205.22918881 86.34289538 198 72 C197.50371094 70.96230469 197.00742188 69.92460938 196.49609375 68.85546875 C185.144689 47.0107568 164.88962867 30.93214622 141.9375 22.6875 C107.96785344 12.31406927 71.01030598 20.69144506 46 46 Z " fill="#FEFEFE" transform="translate(0,0)"/>
<path d="M0 0 C1.66689756 1.4553879 3.31459495 2.9332126 4.9375 4.4375 C6.00871094 5.42363281 6.00871094 5.42363281 7.1015625 6.4296875 C25.05671146 23.69158746 34.68563669 45.73283141 35.29101562 70.59228516 C35.40655257 85.89305322 33.04663109 99.33579029 26.9375 113.4375 C26.6075 113.4375 26.2775 113.4375 25.9375 113.4375 C25.98390625 112.54289063 26.0303125 111.64828125 26.078125 110.7265625 C26.42175301 99.21502433 24.1707213 91.38385266 16.9375 82.4375 C16.2775 82.1075 15.6175 81.7775 14.9375 81.4375 C14.9375 80.7775 14.9375 80.1175 14.9375 79.4375 C12.94281118 78.75510646 10.94092734 78.09379516 8.9375 77.4375 C8.22737259 77.18738159 7.51724518 76.93726318 6.78559875 76.67956543 C0.36377701 74.5473638 -5.40761985 74.01006508 -12.14453125 74.03125 C-13.16173752 74.02041382 -14.17894379 74.00957764 -15.22697449 73.99841309 C-19.5359573 73.95288743 -23.84487241 73.9410281 -28.15405273 73.92626953 C-31.31776317 73.91058525 -34.48097163 73.87761027 -37.64453125 73.84375 C-38.61542191 73.84677124 -39.58631256 73.84979248 -40.58662415 73.85290527 C-45.55180862 73.79763471 -49.06041389 73.71813998 -53.0625 70.4375 C-56.68107568 66.41686036 -58.16943294 63.47890897 -58.23608398 58.09301758 C-58.24957382 57.21813187 -58.26306366 56.34324615 -58.27696228 55.44184875 C-58.28740067 54.49810898 -58.29783905 53.5543692 -58.30859375 52.58203125 C-58.34154632 50.57746982 -58.37475772 48.57291264 -58.40820312 46.56835938 C-58.455495 43.41303566 -58.49990351 40.25772736 -58.53930664 37.10229492 C-58.57924681 34.05368802 -58.6307513 31.0054381 -58.68359375 27.95703125 C-58.6920079 27.02341263 -58.70042206 26.08979401 -58.70909119 25.12788391 C-58.84113646 18.06108458 -59.65779635 11.51812086 -63.0625 5.1875 C-63.3925 4.56359375 -63.7225 3.9396875 -64.0625 3.296875 C-64.5575 2.37648438 -64.5575 2.37648438 -65.0625 1.4375 C-65.39507812 0.72207031 -65.72765625 0.00664063 -66.0703125 -0.73046875 C-67.3575357 -3.10727064 -68.62141296 -3.48554984 -71.0625 -4.5625 C-71.68125 -5.0575 -72.3 -5.5525 -72.9375 -6.0625 C-78.53423688 -10.0131378 -84.37711324 -9.81594131 -90.9375 -9.6875 C-91.81664063 -9.67847656 -92.69578125 -9.66945313 -93.6015625 -9.66015625 C-95.7553271 -9.63674577 -97.90895014 -9.6008801 -100.0625 -9.5625 C-98.02764047 -13.63221906 -92.0920074 -14.58539387 -87.98339844 -15.96191406 C-58.33631222 -25.23133858 -24.25995392 -19.4753519 0 0 Z " fill="#FE9B5B" transform="translate(171.0625,38.5625)"/>
<path d="M0 0 C0.81700882 0.00141495 1.63401764 0.0028299 2.4757843 0.00428772 C5.08415393 0.00988331 7.69243759 0.02243496 10.30078125 0.03515625 C12.06966022 0.04017182 13.83854053 0.04473463 15.60742188 0.04882812 C19.94274144 0.05985129 24.27799677 0.07711287 28.61328125 0.09765625 C28.61328125 0.75765625 28.61328125 1.41765625 28.61328125 2.09765625 C31.08828125 2.59265625 31.08828125 2.59265625 33.61328125 3.09765625 C33.61328125 2.10765625 33.61328125 1.11765625 33.61328125 0.09765625 C37.48828125 0.97265625 37.48828125 0.97265625 38.61328125 2.09765625 C41.28386976 2.23880786 43.93760363 2.14012732 46.61328125 2.09765625 C46.94328125 1.43765625 47.27328125 0.77765625 47.61328125 0.09765625 C52.41328125 2.55919471 52.41328125 2.55919471 53.42578125 5.28515625 C53.48765625 5.88328125 53.54953125 6.48140625 53.61328125 7.09765625 C54.27328125 7.09765625 54.93328125 7.09765625 55.61328125 7.09765625 C58.87841847 14.28095813 58.79083082 21.78407566 58.8515625 29.52734375 C58.85963425 30.51711212 58.86770599 31.50688049 58.87602234 32.52664185 C58.88979855 34.61263306 58.90054933 36.69864621 58.90844727 38.78466797 C58.91998415 40.9064805 58.94046274 43.02826363 58.9699707 45.14990234 C59.01280219 48.23424773 59.02883488 51.31773732 59.0390625 54.40234375 C59.05657059 55.34012665 59.07407867 56.27790955 59.09211731 57.24411011 C59.07162538 63.53185085 58.21427117 68.81714432 54.61328125 74.09765625 C48.65654619 79.22469085 42.2503472 78.66518189 34.671875 78.59375 C33.43083511 78.59520523 32.18979523 78.59666046 30.91114807 78.59815979 C27.62690082 78.59608132 24.34343048 78.57510828 21.05932617 78.54718018 C19.05086331 78.53515674 17.04290561 78.53679518 15.03442383 78.54370117 C11.16334198 78.55630591 7.2929327 78.54761302 3.421875 78.53125 C1.63105751 78.53565346 1.63105751 78.53565346 -0.19593811 78.54014587 C-7.86838293 78.45310938 -12.34502289 77.78899013 -18.22900391 72.58276367 C-21.51711784 68.29624023 -21.02910509 63.51845552 -20.91015625 58.3359375 C-20.90545319 57.30832809 -20.90075012 56.28071869 -20.89590454 55.2219696 C-20.87461544 51.95067396 -20.81801749 48.68101656 -20.76171875 45.41015625 C-20.74520601 43.19858297 -20.7308594 40.98699239 -20.71875 38.77539062 C-20.68483078 34.73587234 -20.65000482 30.69653086 -20.57958984 26.6574707 C-20.56672943 25.84727982 -20.55386902 25.03708893 -20.5406189 24.2023468 C-20.38671875 22.09765625 -20.38671875 22.09765625 -19.38671875 19.09765625 C-19.34717641 16.764658 -19.34270143 14.43057436 -19.38671875 12.09765625 C-14.63671875 10.09765625 -14.63671875 10.09765625 -12.38671875 10.09765625 C-12.05671875 7.12765625 -11.72671875 4.15765625 -11.38671875 1.09765625 C-7.56516495 -0.17619502 -3.97987405 -0.02587563 0 0 Z " fill="#B81729" transform="translate(35.38671875,108.90234375)"/>
<path d="M0 0 C23 0 23 0 29 3 C33.17593623 7.62738879 34.37776653 10.49697414 34.26953125 16.6171875 C33.83437489 20.46422202 32.61159311 23.14426363 30 26 C24.14449717 30.65684696 18.20929198 30.3604646 11 30 C11 35.28 11 40.56 11 46 C7.37 46 3.74 46 0 46 C0 30.82 0 15.64 0 0 Z " fill="#F9F5F4" transform="translate(38,125)"/>
<path d="M0 0 C6.5027492 0.3363491 9.42563427 1.3167208 14 6 C16.55973645 10.26038327 16.63914114 14.14908263 16 19 C14.5786554 23.60587617 12.28193266 26.15629444 8.0625 28.4375 C4.94703607 29.80597481 2.43899534 30.42987442 -1 30 C-1.66 28.02 -2.32 26.04 -3 24 C-4.65 23.67 -6.3 23.34 -8 23 C-8.02685095 20.52076199 -8.04676547 18.0418116 -8.0625 15.5625 C-8.07506836 14.50192383 -8.07506836 14.50192383 -8.08789062 13.41992188 C-8.09653588 11.61306441 -8.05220011 9.80612397 -8 8 C-7 7 -7 7 -3.4375 6.9375 C-2.303125 6.958125 -1.16875 6.97875 0 7 C-1.83656989 4.03268602 -1.83656989 4.03268602 -4 2 C-1.69 2 0.62 2 3 2 C2.67 2.99 2.34 3.98 2 5 C3.32 5.33 4.64 5.66 6 6 C6 5.34 6 4.68 6 4 C5.34 3.67 4.68 3.34 4 3 C2.65724831 2.01268258 1.32267727 1.01405257 0 0 Z " fill="#F6F1F1" transform="translate(56,125)"/>
<path d="M0 0 C0.94480225 -0.02231689 1.88960449 -0.04463379 2.86303711 -0.06762695 C7.30168381 -0.05283813 9.64818478 0.00920236 13.45703125 2.46484375 C14.06933594 3.11582031 14.68164062 3.76679688 15.3125 4.4375 C12.81322231 4.77720765 10.31330405 5.10938032 7.8125 5.4375 C7.11640625 5.53289063 6.4203125 5.62828125 5.703125 5.7265625 C0.86549871 6.3536622 -3.80931196 6.52539528 -8.6875 6.4375 C-8.666875 7.22125 -8.64625 8.005 -8.625 8.8125 C-8.6875 11.4375 -8.6875 11.4375 -9.6875 13.4375 C-9.0275 13.4375 -8.3675 13.4375 -7.6875 13.4375 C-7.6875 14.0975 -7.6875 14.7575 -7.6875 15.4375 C-7.0275 15.4375 -6.3675 15.4375 -5.6875 15.4375 C-5.6875 14.7775 -5.6875 14.1175 -5.6875 13.4375 C-3.2125 13.9325 -3.2125 13.9325 -0.6875 14.4375 C0.32853857 20.22891983 0.27513236 23.8959498 -1.6875 29.4375 C-2.3475 28.4475 -3.0075 27.4575 -3.6875 26.4375 C-4.368125 25.4475 -5.04875 24.4575 -5.75 23.4375 C-7.6875 20.4375 -7.6875 20.4375 -8.6875 17.4375 C-10.53721696 16.38728897 -10.53721696 16.38728897 -12.6875 15.4375 C-13.30625 14.9425 -13.925 14.4475 -14.5625 13.9375 C-20.15923688 9.9868622 -26.00211324 10.18405869 -32.5625 10.3125 C-33.44164063 10.32152344 -34.32078125 10.33054687 -35.2265625 10.33984375 C-37.3803271 10.36325423 -39.53395014 10.3991199 -41.6875 10.4375 C-39.65264047 6.36778094 -33.7170074 5.41460613 -29.60839844 4.03808594 C-19.84199503 0.98453327 -10.17790667 0.14490806 0 0 Z " fill="#FC8A19" transform="translate(112.6875,18.5625)"/>
<path d="M0 0 C0.88860214 -0.01283524 1.77720428 -0.02567047 2.69273376 -0.03889465 C3.66239578 -0.04628159 4.6320578 -0.05366852 5.63110352 -0.0612793 C6.6269899 -0.06935104 7.62287628 -0.07742279 8.64894104 -0.08573914 C10.76659391 -0.09960636 12.88426939 -0.11031664 15.00195312 -0.11816406 C18.21537069 -0.13526055 21.42772814 -0.17910872 24.64086914 -0.22338867 C26.70010637 -0.23352559 28.75935236 -0.24203855 30.81860352 -0.2487793 C32.24576942 -0.27504143 32.24576942 -0.27504143 33.70176697 -0.30183411 C41.28008175 -0.27765574 47.10149694 1.81649554 53.82250977 5.17700195 C53.82250977 5.83700195 53.82250977 6.49700195 53.82250977 7.17700195 C54.81250977 7.50700195 55.80250977 7.83700195 56.82250977 8.17700195 C59.96309763 11.99057293 63.5457018 16.4323806 64.05297852 21.4621582 C63.76000977 23.36450195 63.76000977 23.36450195 62.82250977 26.17700195 C61.33750977 25.68200195 61.33750977 25.68200195 59.82250977 25.17700195 C59.82250977 21.87700195 59.82250977 18.57700195 59.82250977 15.17700195 C57.18250977 15.17700195 54.54250977 15.17700195 51.82250977 15.17700195 C51.32750977 11.21700195 51.32750977 11.21700195 50.82250977 7.17700195 C49.86538086 7.1944043 49.86538086 7.1944043 48.88891602 7.2121582 C48.06262695 7.22118164 47.23633789 7.23020508 46.38500977 7.23950195 C45.14944336 7.2569043 45.14944336 7.2569043 43.88891602 7.2746582 C41.82250977 7.17700195 41.82250977 7.17700195 40.82250977 6.17700195 C39.13571565 6.12819778 37.44711863 6.14067121 35.76000977 6.17700195 C32.05742478 6.22129125 28.40330036 6.1761797 24.71313477 5.88793945 C24.01583252 5.83379883 23.31853027 5.7796582 22.60009766 5.72387695 C20.59400309 5.55890901 18.58907162 5.37997764 16.58422852 5.20043945 C12.59616446 5.1755917 9.60631299 5.98613752 5.82250977 7.17700195 C2.37245476 7.5134536 -1.01621717 7.75763849 -4.17749023 6.17700195 C-4.86499023 3.67700195 -4.86499023 3.67700195 -5.17749023 1.17700195 C-3.62904578 -0.3714425 -2.15567025 0.02703976 0 0 Z " fill="#BE302A" transform="translate(132.177490234375,112.822998046875)"/>
<path d="M0 0 C6.72291811 6.72291811 6.41475233 23.19903326 6.4375 32.1875 C6.26621532 46.35730207 3.6475617 58.96373109 -2 72 C-2.33 72 -2.66 72 -3 72 C-2.95359375 71.10539062 -2.9071875 70.21078125 -2.859375 69.2890625 C-2.6460579 62.14293962 -2.93492151 56.58113259 -6.02734375 50.0859375 C-6.97030447 48.06368439 -7.53235852 46.1757635 -8 44 C-7.0409375 43.8453125 -7.0409375 43.8453125 -6.0625 43.6875 C-5.0415625 43.3471875 -5.0415625 43.3471875 -4 43 C-3.67 42.01 -3.34 41.02 -3 40 C-2.01 40 -1.02 40 0 40 C-0.00523682 39.13721436 -0.01047363 38.27442871 -0.01586914 37.38549805 C-0.03291996 34.18188727 -0.04545453 30.97829964 -0.05493164 27.7746582 C-0.05995777 26.38858275 -0.06677966 25.00251259 -0.07543945 23.61645508 C-0.08758018 21.62323285 -0.09271021 19.62997181 -0.09765625 17.63671875 C-0.10289307 16.43748779 -0.10812988 15.23825684 -0.11352539 14.00268555 C0 11 0 11 1 8 C0.90731495 5.93381251 0.90731495 5.93381251 0.5625 3.8125 C0.376875 2.554375 0.19125 1.29625 0 0 Z " fill="#F8C279" transform="translate(200,80)"/>
<path d="M0 0 C0.33 0 0.66 0 1 0 C1 14.85 1 29.7 1 45 C4.63 45 8.26 45 12 45 C12 40.05 12 35.1 12 30 C13.98 30 15.96 30 18 30 C18 30.66 18 31.32 18 32 C18.94875 31.79375 19.8975 31.5875 20.875 31.375 C22.421875 31.189375 22.421875 31.189375 24 31 C24.66 31.66 25.32 32.32 26 33 C24.02 33.66 22.04 34.32 20 35 C19.67 39.62 19.34 44.24 19 49 C15.43954823 50.18681726 12.56191663 50.09689832 8.8125 50.0625 C7.54019531 50.05347656 6.26789062 50.04445312 4.95703125 50.03515625 C3.49330078 50.01775391 3.49330078 50.01775391 2 50 C1.505 48.515 1.505 48.515 1 47 C0.01 47.66 -0.98 48.32 -2 49 C-2 48.01 -2 47.02 -2 46 C-2.66 46 -3.32 46 -4 46 C-4.33 46.66 -4.66 47.32 -5 48 C-5 46.02 -5 44.04 -5 42 C-4.34 42 -3.68 42 -3 42 C-2.97494385 41.41508789 -2.9498877 40.83017578 -2.92407227 40.22753906 C-2.80777038 37.56815529 -2.68519933 34.90909597 -2.5625 32.25 C-2.52318359 31.32960937 -2.48386719 30.40921875 -2.44335938 29.4609375 C-2.40146484 28.57148438 -2.35957031 27.68203125 -2.31640625 26.765625 C-2.27974854 25.94868164 -2.24309082 25.13173828 -2.20532227 24.29003906 C-2.00796959 22.08888792 -1.54161859 20.13685459 -1 18 C-0.85966422 16.560265 -0.75583143 15.11662851 -0.68359375 13.671875 C-0.64169922 12.87265625 -0.59980469 12.0734375 -0.55664062 11.25 C-0.51732422 10.425 -0.47800781 9.6 -0.4375 8.75 C-0.37272461 7.48929688 -0.37272461 7.48929688 -0.30664062 6.203125 C-0.20091457 4.13559329 -0.09998705 2.06781719 0 0 Z " fill="#AE0A1E" transform="translate(37,126)"/>
<path d="M0 0 C0.66 0.33 1.32 0.66 2 1 C3.29930238 5.28769786 3.07516774 9.56510345 3 14 C3.99 14.33 4.98 14.66 6 15 C5.67 15.66 5.34 16.32 5 17 C14.9 17 24.8 17 35 17 C35 17.33 35 17.66 35 18 C27.08 18 19.16 18 11 18 C10.67 18.66 10.34 19.32 10 20 C7.69 20 5.38 20 3 20 C3.33 20.99 3.66 21.98 4 23 C3.40206327 25.35188447 2.74118205 27.68925595 2 30 C0.02 30.33 -1.96 30.66 -4 31 C-3.979375 32.27875 -3.95875 33.5575 -3.9375 34.875 C-3.875 38.75 -3.875 38.75 -5 41 C-5.11767472 42.4494793 -5.17689268 43.90393996 -5.20532227 45.35791016 C-5.22526749 46.25869293 -5.24521271 47.15947571 -5.26576233 48.08755493 C-5.28247482 49.06155243 -5.29918732 50.03554993 -5.31640625 51.0390625 C-5.33718735 52.03505463 -5.35796844 53.03104675 -5.37937927 54.05722046 C-5.44489042 57.24640854 -5.50376704 60.43568058 -5.5625 63.625 C-5.60568373 65.78386293 -5.64929797 67.9427173 -5.69335938 70.1015625 C-5.80057336 75.4009523 -5.90233685 80.70042606 -6 86 C-6.33 86 -6.66 86 -7 86 C-7.07613173 78.13466601 -7.12863448 70.26942724 -7.16479492 62.40380859 C-7.17817551 59.72850279 -7.20033385 57.05367851 -7.22631836 54.37841797 C-7.26275084 50.53086249 -7.27973828 46.68363414 -7.29296875 42.8359375 C-7.30845261 41.64197357 -7.32393646 40.44800964 -7.33988953 39.21786499 C-7.34197734 28.89170376 -7.34197734 28.89170376 -4 24 C-3.67 23.67 -3.34 23.34 -3 23 C-2.81227017 21.02436705 -2.67578299 19.0437963 -2.5625 17.0625 C-2.16376967 11.23589224 -1.32146047 5.683563 0 0 Z " fill="#F05C87" transform="translate(21,90)"/>
<path d="M0 0 C0.66 0.33 1.32 0.66 2 1 C2 2.32 2 3.64 2 5 C1.401875 5.144375 0.80375 5.28875 0.1875 5.4375 C-1.56150404 5.8872439 -3.28677023 6.42892341 -5 7 C-5.33 9.64 -5.66 12.28 -6 15 C-9.97053711 14.40513614 -12.88966273 13.15986135 -16.375 11.1875 C-17.26960938 10.68605469 -18.16421875 10.18460938 -19.0859375 9.66796875 C-22 8 -22 8 -24.88671875 5.84765625 C-30.68708974 2.53077744 -37.93584371 3.31525177 -44.4375 3.25 C-45.85094752 3.22180559 -47.26436151 3.19187335 -48.67773438 3.16015625 C-52.11833257 3.0867005 -55.55879277 3.03687575 -59 3 C-59 2.67 -59 2.34 -59 2 C-58.30508957 1.98969254 -57.61017914 1.97938507 -56.89421082 1.96876526 C-50.34637933 1.87080081 -43.79863672 1.76828783 -37.25095654 1.66066074 C-33.88470387 1.60548878 -30.51844243 1.55207803 -27.15209961 1.50268555 C-23.28230386 1.44503363 -19.41264856 1.38132432 -15.54296875 1.31640625 C-14.33352097 1.29969376 -13.12407318 1.28298126 -11.87797546 1.26576233 C-10.19657219 1.2358445 -10.19657219 1.2358445 -8.48120117 1.20532227 C-7.49302902 1.18977798 -6.50485687 1.1742337 -5.48674011 1.15821838 C-2.86800044 1.09786217 -2.86800044 1.09786217 0 0 Z " fill="#EF5A91" transform="translate(86,185)"/>
<path d="M0 0 C3.83331699 -0.02929981 7.66660471 -0.04689897 11.5 -0.0625 C12.57765625 -0.07087891 13.6553125 -0.07925781 14.765625 -0.08789062 C20.62049966 -0.10574085 26.20838568 0.15358456 32 1 C32.928125 1 33.85625 1 34.8125 1 C37 1 37 1 40 2 C40 1.34 40 0.68 40 0 C46.93 0 53.86 0 61 0 C61 0.66 61 1.32 61 2 C59.48129302 2.485864 57.95989301 2.96331201 56.4375 3.4375 C55.59058594 3.70433594 54.74367187 3.97117188 53.87109375 4.24609375 C37.73939695 8.4820359 18.73752964 7.31699522 3 2 C2.01 1.34 1.02 0.68 0 0 Z " fill="#EE536A" transform="translate(80,200)"/>
<path d="M0 0 C1.32 1.32 2.64 2.64 4 4 C-2.19278061 14.23155058 -12.57825467 26.63942044 -24 31 C-24.66 30.67 -25.32 30.34 -26 30 C-26 28.02 -26 26.04 -26 24 C-23.69 24 -21.38 24 -19 24 C-18.814375 22.329375 -18.814375 22.329375 -18.625 20.625 C-18 17 -18 17 -16 15 C-12.375 14.875 -12.375 14.875 -9 15 C-9.33 13.02 -9.66 11.04 -10 9 C-7 7 -7 7 -4.8125 7.375 C-4.214375 7.58125 -3.61625 7.7875 -3 8 C-1.92474806 5.34771188 -0.90543849 2.71631546 0 0 Z " fill="#F05E44" transform="translate(186,161)"/>
<path d="M0 0 C3.91083216 -0.06742814 7.45263053 -0.09294953 11.3125 0.5625 C14.08967375 1.22819173 14.08967375 1.22819173 17 0 C18.89952346 0.08521741 20.79663573 0.23729084 22.6875 0.4375 C23.68136719 0.53933594 24.67523438 0.64117187 25.69921875 0.74609375 C26.45847656 0.82988281 27.21773437 0.91367188 28 1 C28 0.67 28 0.34 28 0 C29.98567708 0.26041667 31.97135417 0.52083333 33.95703125 0.78125 C36.15471706 1.053233 36.15471706 1.053233 39 1 C38.67 1.66 38.34 2.32 38 3 C38.66 3 39.32 3 40 3 C39.67 3.66 39.34 4.32 39 5 C37.34385343 5.38218767 35.67542976 5.71395102 34 6 C33.34 6.33 32.68 6.66 32 7 C31.01 6.67 30.02 6.34 29 6 C27.0079697 5.91708047 25.01326287 5.89261823 23.01953125 5.90234375 C21.27446289 5.90717773 21.27446289 5.90717773 19.49414062 5.91210938 C17.67172852 5.92467773 17.67172852 5.92467773 15.8125 5.9375 C13.97268555 5.94426758 13.97268555 5.94426758 12.09570312 5.95117188 C9.06375332 5.96296935 6.03190094 5.97943079 3 6 C3.33 7.65 3.66 9.3 4 11 C3.01 11.495 3.01 11.495 2 12 C2 10.68 2 9.36 2 8 C1.34 8 0.68 8 0 8 C0 5.36 0 2.72 0 0 Z " fill="#C2192F" transform="translate(32,120)"/>
<path d="M0 0 C0.33 0 0.66 0 1 0 C1 5.28 1 10.56 1 16 C1.66 16 2.32 16 3 16 C3.81373452 25.02341169 1.65396307 31.79163295 -2 40 C-2.33 40 -2.66 40 -3 40 C-2.95359375 39.10539062 -2.9071875 38.21078125 -2.859375 37.2890625 C-2.6460579 30.14293962 -2.93492151 24.58113259 -6.02734375 18.0859375 C-6.97030447 16.06368439 -7.53235852 14.1757635 -8 12 C-7.360625 11.896875 -6.72125 11.79375 -6.0625 11.6875 C-5.0415625 11.3471875 -5.0415625 11.3471875 -4 11 C-3.67 10.01 -3.34 9.02 -3 8 C-2.01 8 -1.02 8 0 8 C0 5.36 0 2.72 0 0 Z " fill="#FABB75" transform="translate(200,112)"/>
<path d="M0 0 C7.21153846 -0.48076923 7.21153846 -0.48076923 10.5625 1.5625 C12 4 12 4 11.9375 7.5625 C11 11 11 11 9.9375 12.9375 C6.72427107 14.69959328 3.6157826 14.17782537 0 14 C0 9.38 0 4.76 0 0 Z " fill="#C10D28" transform="translate(49,133)"/>
<path d="M0 0 C1.03157227 0.00676758 1.03157227 0.00676758 2.08398438 0.01367188 C2.78716797 0.01560547 3.49035156 0.01753906 4.21484375 0.01953125 C12.18811201 0.08286701 20.1318949 0.58753696 28.08398438 1.13867188 C28.08398438 1.46867187 28.08398438 1.79867187 28.08398438 2.13867188 C27.34148437 2.26242188 26.59898437 2.38617188 25.83398438 2.51367188 C23.1634693 2.97982796 23.1634693 2.97982796 21.33007812 4.14257812 C18.33386296 5.47133441 15.65980435 5.52941819 12.39648438 5.70117188 C8.42127825 5.56950001 8.42127825 5.56950001 5.08398438 7.13867188 C-2.43840368 7.37747785 -2.43840368 7.37747785 -4.91601562 6.13867188 C-5.60351562 3.63867188 -5.60351562 3.63867188 -5.91601562 1.13867188 C-4.24836789 -0.52897586 -2.22642088 0.00680863 0 0 Z " fill="#C8362B" transform="translate(132.916015625,112.861328125)"/>
<path d="M0 0 C0.66 0 1.32 0 2 0 C3.31223496 3.93670488 2.24296256 6.12488144 1 10 C-0.98 10.33 -2.96 10.66 -5 11 C-4.979375 12.27875 -4.95875 13.5575 -4.9375 14.875 C-4.875 18.75 -4.875 18.75 -6 21 C-6.11767472 22.4494793 -6.17689268 23.90393996 -6.20532227 25.35791016 C-6.22526749 26.25869293 -6.24521271 27.15947571 -6.26576233 28.08755493 C-6.28247482 29.06155243 -6.29918732 30.03554993 -6.31640625 31.0390625 C-6.33718735 32.03505463 -6.35796844 33.03104675 -6.37937927 34.05722046 C-6.44489042 37.24640854 -6.50376704 40.43568058 -6.5625 43.625 C-6.60568373 45.78386293 -6.64929797 47.9427173 -6.69335938 50.1015625 C-6.80057336 55.4009523 -6.90233685 60.70042606 -7 66 C-7.33 66 -7.66 66 -8 66 C-8.07613173 58.13466601 -8.12863448 50.26942724 -8.16479492 42.40380859 C-8.17817551 39.72850279 -8.20033385 37.05367851 -8.22631836 34.37841797 C-8.26275084 30.53086249 -8.27973828 26.68363414 -8.29296875 22.8359375 C-8.30845261 21.64197357 -8.32393646 20.44800964 -8.33988953 19.21786499 C-8.34198953 8.83143723 -8.34198953 8.83143723 -5 4 C-4.34 3.34 -3.68 2.68 -3 2 C-2.01 2 -1.02 2 0 2 C0 1.34 0 0.68 0 0 Z " fill="#E95660" transform="translate(22,110)"/>
<path d="M0 0 C0.33 0 0.66 0 1 0 C1 4.62 1 9.24 1 14 C2.60875 13.9175 4.2175 13.835 5.875 13.75 C6.77992187 13.70359375 7.68484375 13.6571875 8.6171875 13.609375 C11.17110544 13.24388852 11.17110544 13.24388852 12.3203125 10.953125 C12.65675781 9.98632812 12.65675781 9.98632812 13 9 C13.33 9.99 13.66 10.98 14 12 C14.66 12 15.32 12 16 12 C16 12.66 16 13.32 16 14 C18.475 14.495 18.475 14.495 21 15 C20 18 20 18 18.328125 19.16796875 C11.42748092 22.55343511 11.42748092 22.55343511 7 22 C6.34 20.02 5.68 18.04 5 16 C3.35 15.67 1.7 15.34 0 15 C0 10.05 0 5.1 0 0 Z " fill="#F3E4E3" transform="translate(48,133)"/>
<path d="M0 0 C0.97130859 -0.02900391 1.94261719 -0.05800781 2.94335938 -0.08789062 C10.08283661 -0.15150488 10.08283661 -0.15150488 13.98828125 2.33203125 C14.59027344 2.98558594 15.19226563 3.63914062 15.8125 4.3125 C5.00112917 5.44230563 -5.37438437 5.10938494 -16.1875 4.3125 C-16.1875 3.6525 -16.1875 2.9925 -16.1875 2.3125 C-17.1775 1.9825 -18.1675 1.6525 -19.1875 1.3125 C-12.77562486 0.3791738 -6.47639503 0.06524239 0 0 Z " fill="#F69523" transform="translate(112.1875,18.6875)"/>
<path d="M0 0 C6.87614939 2.80139419 11.21124977 9.154187 14.25 15.6875 C15 18 15 18 15 21 C13.35 21 11.7 21 10 21 C10 20.01 10 19.02 10 18 C9.01 18.33 8.02 18.66 7 19 C6.9729957 17.54176788 6.95360213 16.08339325 6.9375 14.625 C6.92589844 13.81289063 6.91429688 13.00078125 6.90234375 12.1640625 C7 10 7 10 8 8 C5.36 8 2.72 8 0 8 C-0.79953138 4.71303767 -1.09658936 3.28976808 0 0 Z " fill="#BF2F2B" transform="translate(97,32)"/>
<path d="M0 0 C6.93 0 13.86 0 21 0 C21 0.66 21 1.32 21 2 C19.48129302 2.485864 17.95989301 2.96331201 16.4375 3.4375 C15.59058594 3.70433594 14.74367187 3.97117188 13.87109375 4.24609375 C7.92162219 5.80833594 2.19506226 6.11677046 -3.9375 6.0625 C-4.62134766 6.05798828 -5.30519531 6.05347656 -6.00976562 6.04882812 C-7.67321604 6.0371956 -9.3366205 6.01926694 -11 6 C-11 5.34 -11 4.68 -11 4 C-5.555 3.01 -5.555 3.01 0 2 C0 1.34 0 0.68 0 0 Z " fill="#EC535A" transform="translate(120,200)"/>
<path d="M0 0 C16.83 0 33.66 0 51 0 C51 1.32 51 2.64 51 4 C45.49633208 4.32374517 41.56327794 4.53286034 37 1 C37 1.99 37 2.98 37 4 C34.525 3.505 34.525 3.505 32 3 C32 2.34 32 1.68 32 1 C31.01 1.165 30.02 1.33 29 1.5 C19.52707697 2.68411538 9.41069457 2.56844909 0 1 C0 0.67 0 0.34 0 0 Z " fill="#D6434B" transform="translate(32,108)"/>
<path d="M0 0 C0.99 0.33 1.98 0.66 3 1 C3 1.66 3 2.32 3 3 C3.99 3.33 4.98 3.66 6 4 C9.14058786 7.81357098 12.72319203 12.25537865 13.23046875 17.28515625 C12.9375 19.1875 12.9375 19.1875 12 22 C11.01 21.67 10.02 21.34 9 21 C9 17.7 9 14.4 9 11 C6.36 11 3.72 11 1 11 C0.67 7.37 0.34 3.74 0 0 Z " fill="#CB3C2B" transform="translate(183,117)"/>
<path d="M0 0 C0.33 0 0.66 0 1 0 C1.02467203 5.94482112 1.04284663 11.8896126 1.05493164 17.83447266 C1.05996831 19.85791543 1.06679789 21.88135456 1.07543945 23.90478516 C1.08753412 26.80892843 1.09323488 29.71302369 1.09765625 32.6171875 C1.10281754 33.52556366 1.10797882 34.43393982 1.11329651 35.36984253 C1.11337204 36.21056305 1.11344757 37.05128357 1.11352539 37.91748047 C1.115746 38.65916473 1.11796661 39.400849 1.12025452 40.16500854 C1 42 1 42 0 44 C-0.66 44 -1.32 44 -2 44 C-2.02907084 40.41668375 -2.04682263 36.83339792 -2.0625 33.25 C-2.07087891 32.23421875 -2.07925781 31.2184375 -2.08789062 30.171875 C-2.09111328 29.1921875 -2.09433594 28.2125 -2.09765625 27.203125 C-2.10289307 26.30239258 -2.10812988 25.40166016 -2.11352539 24.47363281 C-2.00679051 22.14796014 -1.59133044 20.23941109 -1 18 C-0.85966422 16.560265 -0.75583143 15.11662851 -0.68359375 13.671875 C-0.64169922 12.87265625 -0.59980469 12.0734375 -0.55664062 11.25 C-0.49766602 10.0125 -0.49766602 10.0125 -0.4375 8.75 C-0.39431641 7.90953125 -0.35113281 7.0690625 -0.30664062 6.203125 C-0.20091457 4.13559329 -0.09998705 2.06781719 0 0 Z " fill="#C1071F" transform="translate(37,126)"/>
<path d="M0 0 C0.33 0 0.66 0 1 0 C1 4.62 1 9.24 1 14 C-0.98 14.99 -0.98 14.99 -3 16 C-3 16.66 -3 17.32 -3 18 C-3.99 18.66 -4.98 19.32 -6 20 C-6.36162029 21.32594105 -6.69728039 22.65938457 -7 24 C-7.66 24.33 -8.32 24.66 -9 25 C-8.39634834 20.54639222 -7.26697083 16.67956212 -5.625 12.5 C-5.20476563 11.4171875 -4.78453125 10.334375 -4.3515625 9.21875 C-3.02881277 6.06861771 -1.56400545 3.03654859 0 0 Z " fill="#EF5C6D" transform="translate(31,65)"/>
<path d="M0 0 C4.20696128 1.42777089 7.14972107 3.4882949 10.5625 6.3125 C11.49191406 7.07175781 12.42132813 7.83101562 13.37890625 8.61328125 C15.90246876 10.91118989 17.95178215 13.2770751 20 16 C18.68 16 17.36 16 16 16 C15.67 15.01 15.34 14.02 15 13 C12.99983534 11.79117904 12.99983534 11.79117904 11 11 C11 11.66 11 12.32 11 13 C10.01 13 9.02 13 8 13 C8 11.35 8 9.7 8 8 C7.05125 8.020625 6.1025 8.04125 5.125 8.0625 C2 8 2 8 0 7 C0 4.69 0 2.38 0 0 Z " fill="#F6C481" transform="translate(160,32)"/>
<path d="M0 0 C2.32590854 3.63423209 2.16265833 6.77088331 2 11 C4.64 11 7.28 11 10 11 C9.67 11.99 9.34 12.98 9 14 C10.32 14.66 11.64 15.32 13 16 C12.67 16.33 12.34 16.66 12 17 C12.33 17.66 12.66 18.32 13 19 C8.70295375 19.36831825 6.45398977 18.56835136 3 16 C-1.22219898 11.89508433 -1.6166563 8.65431955 -2 3 C-1.34 3 -0.68 3 0 3 C0 2.01 0 1.02 0 0 Z " fill="#FC7EB0" transform="translate(115,93)"/>
<path d="M0 0 C0.66 0.33 1.32 0.66 2 1 C2 2.32 2 3.64 2 5 C-0.31 5.33 -2.62 5.66 -5 6 C-5 5.34 -5 4.68 -5 4 C-22.82 3.67 -40.64 3.34 -59 3 C-59 2.67 -59 2.34 -59 2 C-58.30508957 1.98969254 -57.61017914 1.97938507 -56.89421082 1.96876526 C-50.34637933 1.87080081 -43.79863672 1.76828783 -37.25095654 1.66066074 C-33.88470387 1.60548878 -30.51844243 1.55207803 -27.15209961 1.50268555 C-23.28230386 1.44503363 -19.41264856 1.38132432 -15.54296875 1.31640625 C-14.33352097 1.29969376 -13.12407318 1.28298126 -11.87797546 1.26576233 C-10.19657219 1.2358445 -10.19657219 1.2358445 -8.48120117 1.20532227 C-7.49302902 1.18977798 -6.50485687 1.1742337 -5.48674011 1.15821838 C-2.86800044 1.09786217 -2.86800044 1.09786217 0 0 Z " fill="#D9687B" transform="translate(86,185)"/>
<path d="M0 0 C0.66 0 1.32 0 2 0 C2.69289369 3.72430357 3.11144596 7.21083746 3 11 C0.69 11 -1.62 11 -4 11 C-4.33 10.01 -4.66 9.02 -5 8 C-7.01508358 7.26676204 -7.01508358 7.26676204 -9 7 C-9 6.34 -9 5.68 -9 5 C-8.43410156 4.72285156 -7.86820313 4.44570312 -7.28515625 4.16015625 C-6.55167969 3.79792969 -5.81820312 3.43570313 -5.0625 3.0625 C-3.96615234 2.52302734 -3.96615234 2.52302734 -2.84765625 1.97265625 C-1.03750973 1.13628173 -1.03750973 1.13628173 0 0 Z " fill="#AB0F24" transform="translate(69,149)"/>
<path d="M0 0 C1.258125 -0.020625 2.51625 -0.04125 3.8125 -0.0625 C4.52019531 -0.07410156 5.22789063 -0.08570312 5.95703125 -0.09765625 C8 0 8 0 11 1 C11 1.66 11 2.32 11 3 C15.95 3.33 20.9 3.66 26 4 C26 4.33 26 4.66 26 5 C18.41 5.33 10.82 5.66 3 6 C3.33 7.65 3.66 9.3 4 11 C3.01 11.495 3.01 11.495 2 12 C2 10.68 2 9.36 2 8 C1.34 8 0.68 8 0 8 C0 5.36 0 2.72 0 0 Z " fill="#D13B4E" transform="translate(32,120)"/>
<path d="M0 0 C0.66 0 1.32 0 2 0 C2.05449228 2.83359844 2.09390733 5.66612485 2.125 8.5 C2.14175781 9.29148438 2.15851562 10.08296875 2.17578125 10.8984375 C2.21989226 16.27998079 1.50594058 20.82999927 0 26 C-0.66 25.67 -1.32 25.34 -2 25 C-2 17.41 -2 9.82 -2 2 C-1.01 3.485 -1.01 3.485 0 5 C0 3.35 0 1.7 0 0 Z " fill="#C4122C" transform="translate(35,126)"/>
<path d="M0 0 C0.68578125 0.11730469 1.3715625 0.23460937 2.078125 0.35546875 C5.78947721 0.90698088 9.57075423 0.96587934 13.3125 0.6875 C13.6425 0.3575 13.9725 0.0275 14.3125 -0.3125 C16.66563555 -0.38521741 19.02083668 -0.39620868 21.375 -0.375 C22.66535156 -0.36597656 23.95570312 -0.35695312 25.28515625 -0.34765625 C26.28417969 -0.33605469 27.28320312 -0.32445312 28.3125 -0.3125 C28.8075 1.1725 28.8075 1.1725 29.3125 2.6875 C17.1025 2.6875 4.8925 2.6875 -7.6875 2.6875 C-3.6875 -0.3125 -3.6875 -0.3125 0 0 Z " fill="#A00615" transform="translate(34.6875,184.3125)"/>
<path d="M0 0 C2.70860665 -0.05429278 5.41610901 -0.09381211 8.125 -0.125 C8.88554688 -0.14175781 9.64609375 -0.15851562 10.4296875 -0.17578125 C15.03270731 -0.21546246 18.66464004 0.24092423 23 2 C23 2.66 23 3.32 23 4 C15.25 5.125 15.25 5.125 13 4 C13 3.34 13 2.68 13 2 C12.34 2 11.68 2 11 2 C10.67 2.66 10.34 3.32 10 4 C7.03 4 4.06 4 1 4 C0.67 2.68 0.34 1.36 0 0 Z " fill="#CF3F2B" transform="translate(73,28)"/>
<path d="M0 0 C0.33 0 0.66 0 1 0 C1 5.28 1 10.56 1 16 C0.01 16 -0.98 16 -2 16 C-2.33 17.32 -2.66 18.64 -3 20 C-3.66 20 -4.32 20 -5 20 C-7.04169485 17.09451118 -8 15.59857954 -8 12 C-7.360625 11.896875 -6.72125 11.79375 -6.0625 11.6875 C-5.0415625 11.3471875 -5.0415625 11.3471875 -4 11 C-3.67 10.01 -3.34 9.02 -3 8 C-2.01 8 -1.02 8 0 8 C0 5.36 0 2.72 0 0 Z " fill="#FAB768" transform="translate(200,112)"/>
<path d="M0 0 C5.61 0.33 11.22 0.66 17 1 C17 1.99 17 2.98 17 4 C12.06215348 5.97513861 8.2372694 6.26186347 3 6 C2.34 5.67 1.68 5.34 1 5 C0.67 3.35 0.34 1.7 0 0 Z " fill="#D43D2E" transform="translate(127,114)"/>
<path d="M0 0 C1.7015625 0.2475 1.7015625 0.2475 3.4375 0.5 C6.85998632 1.11223987 6.85998632 1.11223987 9.8125 0.4375 C12.23686545 -0.04737309 13.6719438 0.25169622 16 1 C13.10600531 3.34211663 10.32844572 4.86862171 6.875 6.25 C5.57175781 6.78367188 5.57175781 6.78367188 4.2421875 7.328125 C2 8 2 8 0 7 C0 4.69 0 2.38 0 0 Z " fill="#F05B4D" transform="translate(144,192)"/>
<path d="M0 0 C1.32 1.32 2.64 2.64 4 4 C0.375 9.75 0.375 9.75 -3 12 C-3.99 12 -4.98 12 -6 12 C-6.33 12.66 -6.66 13.32 -7 14 C-7.99 13.67 -8.98 13.34 -10 13 C-9.42655063 10.13275314 -9.1385485 9.1385485 -7 7 C-4.875 7.375 -4.875 7.375 -3 8 C-1.92474806 5.34771188 -0.90543849 2.71631546 0 0 Z " fill="#E95836" transform="translate(186,161)"/>
<path d="M0 0 C3.3 0 6.6 0 10 0 C9.34 2.64 8.68 5.28 8 8 C5.69 7.67 3.38 7.34 1 7 C0 4 0 4 0 0 Z " fill="#EE5584" transform="translate(72,188)"/>
<path d="M0 0 C0 0.99 0 1.98 0 3 C-0.66 3 -1.32 3 -2 3 C-2 3.99 -2 4.98 -2 6 C-1.34 6 -0.68 6 0 6 C0 6.66 0 7.32 0 8 C-1.98073365 7.719172 -3.95958448 7.42503386 -5.9375 7.125 C-7.59072266 6.88136719 -7.59072266 6.88136719 -9.27734375 6.6328125 C-10.17582031 6.42398437 -11.07429688 6.21515625 -12 6 C-12.33 5.34 -12.66 4.68 -13 4 C-12.01 4 -11.02 4 -10 4 C-10 3.34 -10 2.68 -10 2 C-6.5980513 -0.09350689 -3.94727588 -0.17942163 0 0 Z " fill="#FB8D10" transform="translate(96,21)"/>
<path d="M0 0 C0.33 0 0.66 0 1 0 C2.125 5.75 2.125 5.75 1 8 C0.88232528 9.4494793 0.82310732 10.90393996 0.79467773 12.35791016 C0.77473251 13.25869293 0.75478729 14.15947571 0.73423767 15.08755493 C0.71752518 16.06155243 0.70081268 17.03554993 0.68359375 18.0390625 C0.66281265 19.03505463 0.64203156 20.03104675 0.62062073 21.05722046 C0.55510958 24.24640854 0.49623296 27.43568058 0.4375 30.625 C0.39431627 32.78386293 0.35070203 34.9427173 0.30664062 37.1015625 C0.19942664 42.4009523 0.09766315 47.70042606 0 53 C-0.33 53 -0.66 53 -1 53 C-1.02537362 46.25562341 -1.04287685 39.51125916 -1.05493164 32.7668457 C-1.05995761 30.47289571 -1.06677938 28.17894892 -1.07543945 25.88500977 C-1.08758096 22.58609222 -1.09324572 19.28721707 -1.09765625 15.98828125 C-1.10281754 14.96414627 -1.10797882 13.94001129 -1.11329651 12.88484192 C-1.11337204 11.92422348 -1.11344757 10.96360504 -1.11352539 9.97387695 C-1.115746 9.13226517 -1.11796661 8.29065338 -1.12025452 7.42353821 C-0.99333791 4.86573618 -0.56187588 2.49545389 0 0 Z " fill="#C93651" transform="translate(15,123)"/>
<path d="M0 0 C1.98 0 3.96 0 6 0 C5.01 0.495 5.01 0.495 4 1 C3.53101037 3.8159849 3.53101037 3.8159849 3.375 7.0625 C3.30023438 8.16722656 3.22546875 9.27195313 3.1484375 10.41015625 C3.09945312 11.26480469 3.05046875 12.11945313 3 13 C4.98 12.67 6.96 12.34 9 12 C8.67 12.66 8.34 13.32 8 14 C5.36 14 2.72 14 0 14 C0 9.38 0 4.76 0 0 Z " fill="#B90A21" transform="translate(49,133)"/>
<path d="M0 0 C1.41152344 0.13148437 1.41152344 0.13148437 2.8515625 0.265625 C5.375 0.75 5.375 0.75 8.375 2.75 C5.52339609 3.56434143 3.00873869 3.86881242 0.046875 3.84765625 C-0.75234375 3.84443359 -1.5515625 3.84121094 -2.375 3.83789062 C-3.2 3.82951172 -4.025 3.82113281 -4.875 3.8125 C-5.71546875 3.80798828 -6.5559375 3.80347656 -7.421875 3.79882812 C-9.48961401 3.78707961 -11.55731624 3.76914522 -13.625 3.75 C-8.92483736 0.61655824 -5.65958058 -0.59246298 0 0 Z " fill="#CC0F28" transform="translate(53.625,120.25)"/>
<path d="M0 0 C1.45823212 -0.0270043 2.91660675 -0.04639787 4.375 -0.0625 C5.18710938 -0.07410156 5.99921875 -0.08570313 6.8359375 -0.09765625 C9 0 9 0 11 1 C13.33189345 1.26955833 15.66321507 1.44507377 18.00390625 1.62109375 C18.66261719 1.74613281 19.32132813 1.87117187 20 2 C20.33 2.66 20.66 3.32 21 4 C21.99 4.66 22.98 5.32 24 6 C18.3444819 5.39496146 12.99786009 4.37814297 7.5 2.9375 C6.77296875 2.75123047 6.0459375 2.56496094 5.296875 2.37304688 C3.53012276 1.91973545 1.76489225 1.4604998 0 1 C0 0.67 0 0.34 0 0 Z " fill="#EA5B7E" transform="translate(80,200)"/>
<path d="M0 0 C5.75 4.625 5.75 4.625 8 8 C7.67 8.99 7.34 9.98 7 11 C4.525 10.01 4.525 10.01 2 9 C1.34 9.66 0.68 10.32 0 11 C0 7.37 0 3.74 0 0 Z " fill="#F7C77F" transform="translate(184,53)"/>
<path d="M0 0 C0.66 0.33 1.32 0.66 2 1 C2.18032787 11.63934426 2.18032787 11.63934426 0 16 C-2.32156597 16.40729228 -4.6568787 16.74438677 -7 17 C-6.67 16.34 -6.34 15.68 -6 15 C-5.34 15 -4.68 15 -4 15 C-2.24265549 10.02638346 -0.67415387 5.2584002 0 0 Z " fill="#EA5667" transform="translate(94,168)"/>
<path d="M0 0 C5.61 0 11.22 0 17 0 C17 1.32 17 2.64 17 4 C15.54207116 4.05399736 14.08357288 4.09279177 12.625 4.125 C11.81289062 4.14820312 11.00078125 4.17140625 10.1640625 4.1953125 C8 4 8 4 6 2 C4.01178687 1.60235737 2.01055661 1.26224651 0 1 C0 0.67 0 0.34 0 0 Z " fill="#CA4848" transform="translate(66,108)"/>
<path d="M0 0 C0.99 0 1.98 0 3 0 C3 4.95 3 9.9 3 15 C2.01 15.495 2.01 15.495 1 16 C0.67 13.03 0.34 10.06 0 7 C-0.33 7 -0.66 7 -1 7 C-1.04254356 5.00045254 -1.04080783 2.99958364 -1 1 C-0.67 0.67 -0.34 0.34 0 0 Z " fill="#A4121F" transform="translate(90,136)"/>
<path d="M0 0 C2 3 2 3 1.625 5.1875 C1.41875 5.785625 1.2125 6.38375 1 7 C0.01 7 -0.98 7 -2 7 C-2 7.66 -2 8.32 -2 9 C-1.34 9.33 -0.68 9.66 0 10 C-2.97 9.505 -2.97 9.505 -6 9 C-6 6 -6 6 -4.6875 4.39453125 C-4.130625 3.87246094 -3.57375 3.35039062 -3 2.8125 C-2.443125 2.28269531 -1.88625 1.75289062 -1.3125 1.20703125 C-0.6628125 0.60955078 -0.6628125 0.60955078 0 0 Z " fill="#F6F4EF" transform="translate(183,174)"/>
<path d="M0 0 C1.25039063 0.00322266 2.50078125 0.00644531 3.7890625 0.00976562 C5.74199219 0.02233398 5.74199219 0.02233398 7.734375 0.03515625 C9.71050781 0.04192383 9.71050781 0.04192383 11.7265625 0.04882812 C14.97921241 0.06061309 18.23177084 0.07706614 21.484375 0.09765625 C21.484375 0.42765625 21.484375 0.75765625 21.484375 1.09765625 C13.564375 1.09765625 5.644375 1.09765625 -2.515625 1.09765625 C-2.845625 1.75765625 -3.175625 2.41765625 -3.515625 3.09765625 C-5.825625 3.09765625 -8.135625 3.09765625 -10.515625 3.09765625 C-10.515625 2.43765625 -10.515625 1.77765625 -10.515625 1.09765625 C-6.97374222 -0.00063144 -3.6946488 -0.01679386 0 0 Z " fill="#ED5667" transform="translate(34.515625,106.90234375)"/>
<path d="M0 0 C0.33 0 0.66 0 1 0 C1.1953125 6.0546875 1.1953125 6.0546875 1 8 C0.34 8.66 -0.32 9.32 -1 10 C-3.625 9.625 -3.625 9.625 -6 9 C-5.18914873 7.68648079 -4.37626942 6.37421332 -3.5625 5.0625 C-3.11003906 4.33160156 -2.65757813 3.60070313 -2.19140625 2.84765625 C-1 1 -1 1 0 0 Z " fill="#ED5A56" transform="translate(39,54)"/>
<path d="M0 0 C6.12621669 -0.48048758 6.81596661 -0.14722671 12 4 C7.38 4.33 2.76 4.66 -2 5 C-1.34 4.34 -0.68 3.68 0 3 C0 2.01 0 1.02 0 0 Z " fill="#FA9B3B" transform="translate(116,19)"/>
<path d="M0 0 C0.99773437 0.02320312 1.99546875 0.04640625 3.0234375 0.0703125 C4.52777344 0.09738281 4.52777344 0.09738281 6.0625 0.125 C6.83335937 0.14820312 7.60421875 0.17140625 8.3984375 0.1953125 C8.7284375 1.5153125 9.0584375 2.8353125 9.3984375 4.1953125 C3.74108335 5.75108489 0.60176884 4.43812773 -4.6015625 2.1953125 C-2.6015625 0.1953125 -2.6015625 0.1953125 0 0 Z " fill="#F9994C" transform="translate(178.6015625,111.8046875)"/>
<path d="M0 0 C0.66 0 1.32 0 2 0 C2.05399736 1.45792884 2.09279177 2.91642712 2.125 4.375 C2.14820313 5.18710938 2.17140625 5.99921875 2.1953125 6.8359375 C2 9 2 9 0 11 C-0.40047444 13.32275177 -0.7397104 15.65739357 -1 18 C-1.33 18 -1.66 18 -2 18 C-2 12.72 -2 7.44 -2 2 C-1.01 3.485 -1.01 3.485 0 5 C0 3.35 0 1.7 0 0 Z " fill="#D4112F" transform="translate(35,126)"/>
<path d="M0 0 C2.475 0.99 2.475 0.99 5 2 C5 3.32 5 4.64 5 6 C5.66 6.66 6.32 7.32 7 8 C4.69 7.67 2.38 7.34 0 7 C0 4.69 0 2.38 0 0 Z " fill="#F8BE74" transform="translate(160,32)"/>
<path d="M0 0 C1.32 0 2.64 0 4 0 C3.67 1.65 3.34 3.3 3 5 C3.33 5 3.66 5 4 5 C4 7.31 4 9.62 4 12 C3.34 11.67 2.68 11.34 2 11 C2.33 10.34 2.66 9.68 3 9 C2.01 9.33 1.02 9.66 0 10 C0 6.7 0 3.4 0 0 Z " fill="#FBFCFB" transform="translate(61,136)"/>
<path d="M0 0 C0.99 0.33 1.98 0.66 3 1 C4.35384615 7.4 4.35384615 7.4 2.5625 10.4375 C2.046875 10.953125 1.53125 11.46875 1 12 C-0.26237731 9.47524538 -0.09856404 7.68799534 -0.0625 4.875 C-0.05347656 3.96492187 -0.04445312 3.05484375 -0.03515625 2.1171875 C-0.02355469 1.41851562 -0.01195312 0.71984375 0 0 Z " fill="#B61C2F" transform="translate(57,134)"/>
<path d="M0 0 C7.20454545 9.00568182 7.20454545 9.00568182 6.75 13.4375 C6.5025 13.953125 6.255 14.46875 6 15 C4.02 11.535 4.02 11.535 2 8 C1.01 8.33 0.02 8.66 -1 9 C-0.67 6.03 -0.34 3.06 0 0 Z " fill="#F5C885" transform="translate(193,65)"/>
<path d="M0 0 C4.23429756 1.31061591 8.07407404 2.94356259 12 5 C8.25 7 8.25 7 6 7 C6 6.34 6 5.68 6 5 C3.36 4.67 0.72 4.34 -2 4 C-2 2 -2 2 0 0 Z " fill="#F7B466" transform="translate(146,25)"/>
<path d="M0 0 C-0.66 0 -1.32 0 -2 0 C-2 0.66 -2 1.32 -2 2 C-4.72106694 4.72106694 -6.84776311 4.60655572 -10.625 5.125 C-12.40777344 5.37636719 -12.40777344 5.37636719 -14.2265625 5.6328125 C-15.14179687 5.75398438 -16.05703125 5.87515625 -17 6 C-15.43419334 2.86838668 -12.82184478 2.54395566 -9.625 1.3125 C-8.46226563 0.85488281 -7.29953125 0.39726562 -6.1015625 -0.07421875 C-3 -1 -3 -1 0 0 Z " fill="#F69432" transform="translate(88,23)"/>
<path d="M0 0 C1.32 0.33 2.64 0.66 4 1 C5.7479503 6.24385089 6.19392201 10.47322267 6 16 C5.67 16 5.34 16 5 16 C4.855625 14.948125 4.71125 13.89625 4.5625 12.8125 C4.12473034 9.84539451 3.62195134 6.93205634 3 4 C2.01 4.33 1.02 4.66 0 5 C0 3.35 0 1.7 0 0 Z " fill="#CE4743" transform="translate(88,112)"/>
<path d="M0 0 C-0.99 1.485 -0.99 1.485 -2 3 C-6.83952815 3.39028453 -9.73949493 3.39772819 -14 1 C-12.41913952 0.63495397 -10.83516093 0.28339494 -9.25 -0.0625 C-8.36828125 -0.25972656 -7.4865625 -0.45695313 -6.578125 -0.66015625 C-4.01320972 -0.99825872 -2.42908361 -0.81158635 0 0 Z " fill="#F6EFEB" transform="translate(138,204)"/>
<path d="M0 0 C0.33 0.66 0.66 1.32 1 2 C-5.435 2.495 -5.435 2.495 -12 3 C-11.34 2.67 -10.68 2.34 -10 2 C-10 1.34 -10 0.68 -10 0 C-6.42742531 -1.23666047 -3.64473199 -0.89093449 0 0 Z " fill="#EE5F66" transform="translate(130,203)"/>
<path d="M0 0 C0.66 0.33 1.32 0.66 2 1 C2.29296875 7.0546875 2.29296875 7.0546875 2 9 C1.01 9.66 0.02 10.32 -1 11 C-1.66 10.01 -2.32 9.02 -3 8 C-1 2 -1 2 0 0 Z " fill="#DF5435" transform="translate(195,145)"/>
<path d="M0 0 C1.32 0.33 2.64 0.66 4 1 C3.04578192 2.14926266 2.08647955 3.29430541 1.125 4.4375 C0.59132812 5.07558594 0.05765625 5.71367187 -0.4921875 6.37109375 C-2 8 -2 8 -4 9 C-3.67 7.02 -3.34 5.04 -3 3 C-2.34 3 -1.68 3 -1 3 C-0.67 2.01 -0.34 1.02 0 0 Z " fill="#EF5F48" transform="translate(180,172)"/>
<path d="M0 0 C1.65 0.33 3.3 0.66 5 1 C5 2.98 5 4.96 5 7 C4.34 6.34 3.68 5.68 3 5 C3 4.01 3 3.02 3 2 C2.34 2.66 1.68 3.32 1 4 C1.33 4.99 1.66 5.98 2 7 C1.01 7 0.02 7 -1 7 C-1.625 5.1875 -1.625 5.1875 -2 3 C-1.34 2.01 -0.68 1.02 0 0 Z " fill="#FD8B0C" transform="translate(107,32)"/>
<path d="M0 0 C0.99 0.495 0.99 0.495 2 1 C2.625 4.0625 2.625 4.0625 3 7 C3.99 5.68 4.98 4.36 6 3 C5.67 5.31 5.34 7.62 5 10 C3.68 10.33 2.36 10.66 1 11 C0.67 7.37 0.34 3.74 0 0 Z " fill="#FC8E44" transform="translate(112,53)"/>
<path d="M0 0 C0.66 0.99 1.32 1.98 2 3 C1.01 3.66 0.02 4.32 -1 5 C-1.33 5.66 -1.66 6.32 -2 7 C-4.31 6.67 -6.62 6.34 -9 6 C-6.11964908 3.75972706 -3.15133488 1.83827868 0 0 Z " fill="#F7F0EB" transform="translate(161,192)"/>
<path d="M0 0 C2.33944736 0.28730055 4.6739143 0.61936779 7 1 C6.67 2.32 6.34 3.64 6 5 C3.03 4.505 3.03 4.505 0 4 C-0.33 3.01 -0.66 2.02 -1 1 C-0.67 0.67 -0.34 0.34 0 0 Z M0 5 C3 6 3 6 3 6 Z " fill="#B92B24" transform="translate(170,113)"/>
<path d="M0 0 C2.83022097 3.99560608 1.76210446 7.42737323 1 12 C0.34 11.67 -0.32 11.34 -1 11 C-1.59355614 8.35139573 -1.74209269 5.70802678 -2 3 C-1.34 3 -0.68 3 0 3 C0 2.01 0 1.02 0 0 Z " fill="#F9809F" transform="translate(115,93)"/>
<path d="M0 0 C0.33 0.99 0.66 1.98 1 3 C-1.11770166 5.32947183 -3.03335588 6.88750845 -6 8 C-6.99 7.67 -7.98 7.34 -9 7 C-6.03 4.69 -3.06 2.38 0 0 Z " fill="#F8ECE2" transform="translate(175,182)"/>
<path d="M0 0 C0.33 0 0.66 0 1 0 C2.125 5.75 2.125 5.75 1 8 C0.77049681 10.204364 0.58924067 12.41392173 0.4375 14.625 C0.35371094 15.81351563 0.26992187 17.00203125 0.18359375 18.2265625 C0.12300781 19.14179688 0.06242188 20.05703125 0 21 C-0.33 21 -0.66 21 -1 21 C-1.02710123 18.4374282 -1.04688771 15.87514635 -1.0625 13.3125 C-1.07087891 12.59126953 -1.07925781 11.87003906 -1.08789062 11.12695312 C-1.10543632 7.28444618 -0.93524221 3.73360474 0 0 Z " fill="#DB394D" transform="translate(15,123)"/>
<path d="M0 0 C0.66 1.32 1.32 2.64 2 4 C2.66 4 3.32 4 4 4 C3.67 4.99 3.34 5.98 3 7 C1.35 6.67 -0.3 6.34 -2 6 C-2.33 5.01 -2.66 4.02 -3 3 C-2.01 2.01 -1.02 1.02 0 0 Z " fill="#EC5D48" transform="translate(51,41)"/>
<path d="M0 0 C3.3 0 6.6 0 10 0 C7.997499 2.002501 6.593341 2.93215371 4 4 C2.68 4 1.36 4 0 4 C0 2.68 0 1.36 0 0 Z " fill="#F7F5ED" transform="translate(67,25)"/>
<path d="M0 0 C0.33 0 0.66 0 1 0 C1 2.31 1 4.62 1 7 C-0.65 7.33 -2.3 7.66 -4 8 C-4 7.01 -4 6.02 -4 5 C-3.34 5 -2.68 5 -2 5 C-1.7834375 4.0409375 -1.7834375 4.0409375 -1.5625 3.0625 C-1 1 -1 1 0 0 Z " fill="#9A101C" transform="translate(92,170)"/>
<path d="M0 0 C1.32 1.32 2.64 2.64 4 4 C2.515 6.475 2.515 6.475 1 9 C0.34 8.67 -0.32 8.34 -1 8 C-1.125 2.25 -1.125 2.25 0 0 Z " fill="#EA5D42" transform="translate(186,161)"/>
<path d="M0 0 C1.7492214 -0.08142927 3.49954542 -0.13938541 5.25 -0.1875 C6.22453125 -0.22230469 7.1990625 -0.25710937 8.203125 -0.29296875 C11.37468742 0.03924798 12.67040307 0.88672279 15 3 C12.03 3 9.06 3 6 3 C6 2.34 6 1.68 6 1 C4.02 1 2.04 1 0 1 C0 0.67 0 0.34 0 0 Z " fill="#C03344" transform="translate(49,155)"/>
<path d="M0 0 C1.98 0 3.96 0 6 0 C5.67 1.65 5.34 3.3 5 5 C4.67 4.34 4.34 3.68 4 3 C3.01 3 2.02 3 1 3 C1 4.65 1 6.3 1 8 C0.67 8 0.34 8 0 8 C0 5.36 0 2.72 0 0 Z " fill="#DC2338" transform="translate(32,120)"/>
<path d="M0 0 C0.33 0.66 0.66 1.32 1 2 C-0.125 4.5625 -0.125 4.5625 -2 7 C-4.6875 7.8125 -4.6875 7.8125 -7 8 C-6.02133662 6.85373678 -5.04205413 5.70800212 -4.0625 4.5625 C-3.51722656 3.92441406 -2.97195312 3.28632812 -2.41015625 2.62890625 C-1.63204305 1.73008851 -0.84063472 0.84063472 0 0 Z " fill="#EB6159" transform="translate(47,45)"/>
<path d="M0 0 C0.68707555 2.49064888 1 4.37886292 1 7 C0.34 7 -0.32 7 -1 7 C-1 7.66 -1 8.32 -1 9 C-2.5 10.625 -2.5 10.625 -4 12 C-4.66 11.67 -5.32 11.34 -6 11 C-5.47599609 10.18595703 -5.47599609 10.18595703 -4.94140625 9.35546875 C-4.25884766 8.28232422 -4.25884766 8.28232422 -3.5625 7.1875 C-3.11003906 6.47980469 -2.65757812 5.77210938 -2.19140625 5.04296875 C-0.85913661 2.91865448 -0.85913661 2.91865448 0 0 Z " fill="#F9E9DD" transform="translate(195,155)"/>
<path d="M0 0 C1.32 0.33 2.64 0.66 4 1 C4 1.66 4 2.32 4 3 C3.01 3.66 2.02 4.32 1 5 C0.63837971 6.32594105 0.30271961 7.65938457 0 9 C-0.99 9.495 -0.99 9.495 -2 10 C-1.46274105 6.62294375 -0.88935377 3.303314 0 0 Z " fill="#EE5F79" transform="translate(24,80)"/>
<path d="M0 0 C2.31 0 4.62 0 7 0 C7.33 0.66 7.66 1.32 8 2 C4.535 3.485 4.535 3.485 1 5 C1 4.01 1 3.02 1 2 C0.67 1.67 0.34 1.34 0 1 C0 0.67 0 0.34 0 0 Z " fill="#F06152" transform="translate(152,192)"/>
<path d="M0 0 C1.32 0.33 2.64 0.66 4 1 C0.535 3.97 0.535 3.97 -3 7 C-2.25 2.25 -2.25 2.25 0 0 Z " fill="#F8F1E9" transform="translate(44,44)"/>
<path d="M0 0 C5.28 0 10.56 0 16 0 C16.33 0.99 16.66 1.98 17 3 C16.21882813 2.76990234 16.21882813 2.76990234 15.421875 2.53515625 C12.36721485 1.86017489 9.36984029 1.65588882 6.25 1.4375 C5.07953125 1.35371094 3.9090625 1.26992188 2.703125 1.18359375 C1.81109375 1.12300781 0.9190625 1.06242187 0 1 C0 0.67 0 0.34 0 0 Z " fill="#EE7224" transform="translate(77,27)"/>
<path d="M0 0 C0.94875 0.350625 1.8975 0.70125 2.875 1.0625 C0.875 3.0625 0.875 3.0625 -2.25 3.1875 C-3.673125 3.125625 -3.673125 3.125625 -5.125 3.0625 C-5.125 2.0725 -5.125 1.0825 -5.125 0.0625 C-3.125 -0.9375 -3.125 -0.9375 0 0 Z " fill="#F9AB59" transform="translate(149.125,28.9375)"/>
<path d="M0 0 C2.64 0.33 5.28 0.66 8 1 C8 1.99 8 2.98 8 4 C7.01 4 6.02 4 5 4 C5 3.34 5 2.68 5 2 C3.35 2.33 1.7 2.66 0 3 C0 2.01 0 1.02 0 0 Z " fill="#F6E9EB" transform="translate(88,203)"/>
<path d="M0 0 C2.475 0.99 2.475 0.99 5 2 C4.67 2.99 4.34 3.98 4 5 C2.35 4.67 0.7 4.34 -1 4 C-0.67 2.68 -0.34 1.36 0 0 Z " fill="#F9F1F6" transform="translate(66,194)"/>
<path d="M0 0 C0.33 0 0.66 0 1 0 C1 1.65 1 3.3 1 5 C-0.32 5 -1.64 5 -3 5 C-3.66 4.34 -4.32 3.68 -5 3 C-4.34 3 -3.68 3 -3 3 C-2.67 2.34 -2.34 1.68 -2 1 C-1.34 1.33 -0.68 1.66 0 2 C0 1.34 0 0.68 0 0 Z " fill="#E84650" transform="translate(23,114)"/>
<path d="M0 0 C0.625 1.8125 0.625 1.8125 1 4 C0.01 5.485 0.01 5.485 -1 7 C-0.34 7.33 0.32 7.66 1 8 C-0.65 7.67 -2.3 7.34 -4 7 C-2.68 4.69 -1.36 2.38 0 0 Z " fill="#F16262" transform="translate(37,56)"/>
<path d="M0 0 C4.455 0.99 4.455 0.99 9 2 C9 2.66 9 3.32 9 4 C6.36 4 3.72 4 1 4 C0.67 2.68 0.34 1.36 0 0 Z " fill="#DF4829" transform="translate(73,28)"/>
<path d="M0 0 C0.99 0.33 1.98 0.66 3 1 C3.75 2.9375 3.75 2.9375 4 5 C3.67 5.66 3.34 6.32 3 7 C0.2160817 5.60804085 0.02101003 3.84424221 -1 1 C-0.67 0.67 -0.34 0.34 0 0 Z " fill="#AD1F29" transform="translate(20,178)"/>
<path d="M0 0 C1.98 0.99 1.98 0.99 4 2 C4 2.99 4 3.98 4 5 C2.68 5.33 1.36 5.66 0 6 C0 4.02 0 2.04 0 0 Z " fill="#D84335" transform="translate(112,103)"/>
<path d="M0 0 C2.97 0 5.94 0 9 0 C9.33 0.66 9.66 1.32 10 2 C5.94568308 3.15837626 3.78187881 2.83691257 0 1 C0 0.67 0 0.34 0 0 Z " fill="#D54333" transform="translate(74,28)"/>
<path d="M0 0 C3.96 0.33 7.92 0.66 12 1 C12 1.33 12 1.66 12 2 C3.42857143 3.42857143 3.42857143 3.42857143 0 1 C0 0.67 0 0.34 0 0 Z " fill="#F5A758" transform="translate(124,20)"/>
</svg>
