<?xml version="1.0" encoding="UTF-8"?>
<svg version="1.1" xmlns="http://www.w3.org/2000/svg" width="980" height="980">
<path d="M0 0 C1.2811972 0.00182281 2.56239441 0.00364563 3.88241577 0.00552368 C22.26739633 0.04958414 40.24945016 0.44708542 58.4375 3.3125 C59.58105957 3.47878906 60.72461914 3.64507812 61.90283203 3.81640625 C138.08175548 14.97209945 209.53433977 47.90254689 268.4375 97.3125 C268.93677002 97.72771912 269.43604004 98.14293823 269.95043945 98.57073975 C278.74512098 105.89678619 287.02171243 113.60648491 295.07202148 121.74121094 C296.89309087 123.58077459 298.72227504 125.41197141 300.55273438 127.2421875 C306.38727943 133.09380922 312.14477609 138.95839386 317.4375 145.3125 C317.93838135 145.90659668 318.4392627 146.50069336 318.95532227 147.11279297 C369.92223264 208.01066529 402.63921485 280.85161723 414.4375 359.3125 C414.60121094 360.33456543 414.76492188 361.35663086 414.93359375 362.40966797 C430.28241208 461.62201954 402.81056879 568.11424524 338.07470703 663.08203125 C334.0131495 668.61534314 329.79294541 674.00812077 325.4375 679.3125 C324.77137695 680.12509277 324.77137695 680.12509277 324.09179688 680.95410156 C314.1207762 693.0556209 303.43547683 704.40586443 292.39440918 715.53082275 C291.39864564 716.53462632 290.40436706 717.53990562 289.41174316 718.54681396 C282.76864889 725.27533637 275.82643876 731.41207163 268.4375 737.3125 C267.33579544 738.2474252 266.23944907 739.18876362 265.15234375 740.140625 C206.53896791 791.25214823 128.34423486 823.16156636 51.4375 832.3125 C50.67200836 832.40359039 49.90651672 832.49468079 49.11782837 832.58853149 C33.04336673 834.42654464 17.04106398 834.6727477 0.875 834.625 C-0.4061972 834.62317719 -1.68739441 834.62135437 -3.00741577 834.61947632 C-21.39239633 834.57541586 -39.37445016 834.17791458 -57.5625 831.3125 C-59.27783936 831.06306641 -59.27783936 831.06306641 -61.02783203 830.80859375 C-137.20675548 819.65290055 -208.65933977 786.72245311 -267.5625 737.3125 C-268.06177002 736.89728088 -268.56104004 736.48206177 -269.07543945 736.05426025 C-277.87012098 728.72821381 -286.14671243 721.01851509 -294.19702148 712.88378906 C-296.01809087 711.04422541 -297.84727504 709.21302859 -299.67773438 707.3828125 C-305.51227943 701.53119078 -311.26977609 695.66660614 -316.5625 689.3125 C-317.06338135 688.71840332 -317.5642627 688.12430664 -318.08032227 687.51220703 C-369.04723264 626.61433471 -401.76421485 553.77338277 -413.5625 475.3125 C-413.72621094 474.29043457 -413.88992188 473.26836914 -414.05859375 472.21533203 C-429.40741208 373.00298046 -401.93556879 266.51075476 -337.19970703 171.54296875 C-333.1381495 166.00965686 -328.91794541 160.61687923 -324.5625 155.3125 C-324.11841797 154.77077148 -323.67433594 154.22904297 -323.21679688 153.67089844 C-313.2457762 141.5693791 -302.56047683 130.21913557 -291.51940918 119.09417725 C-290.52364564 118.09037368 -289.52936706 117.08509438 -288.53674316 116.07818604 C-281.89364889 109.34966363 -274.95143876 103.21292837 -267.5625 97.3125 C-266.46079544 96.3775748 -265.36444907 95.43623638 -264.27734375 94.484375 C-205.66396791 43.37285177 -127.46923486 11.46343364 -50.5625 2.3125 C-49.79700836 2.22140961 -49.03151672 2.13031921 -48.24282837 2.03646851 C-32.16836673 0.19845536 -16.16606398 -0.0477477 0 0 Z " fill="#FEFEFE" transform="translate(489.5625,72.6875)"/>
<path d="M0 0 C0.87603882 -0.00045319 1.75207764 -0.00090637 2.65466309 -0.00137329 C27.31785581 0.03570457 51.2878693 3.0004939 75.0625 9.75 C75.81418457 9.96205078 76.56586914 10.17410156 77.34033203 10.39257812 C78.89501584 10.83260134 80.44922001 11.27432288 82.00292969 11.71777344 C84.27329306 12.36384302 86.54660331 12.99863521 88.8203125 13.6328125 C90.276237 14.04618764 91.73197375 14.46022475 93.1875 14.875 C93.8278418 15.05208496 94.46818359 15.22916992 95.12792969 15.41162109 C131.55990299 25.94605636 166.137117 48.54180036 194.3125 73.375 C195.13363281 74.08527344 195.95476562 74.79554688 196.80078125 75.52734375 C208.23336316 85.57529217 218.97586672 96.34672469 228.3125 108.375 C229.18957127 109.46372039 230.06857968 110.55088223 230.94921875 111.63671875 C249.04298021 134.07031229 266.37054397 160.98212437 274.49609375 188.8046875 C275.31617001 191.53858933 275.31617001 191.53858933 276.7578125 194.69921875 C278.37683936 198.52711894 279.60772416 202.3240729 280.75 206.3125 C280.96390381 207.05338867 281.17780762 207.79427734 281.39819336 208.55761719 C284.52777957 219.51175084 287.22995953 230.51034144 289.4375 241.6875 C289.59613525 242.46770508 289.75477051 243.24791016 289.91821289 244.05175781 C292.91198419 259.75214542 293.6933726 275.55232473 293.625 291.5 C293.62226578 292.83646072 293.62226578 292.83646072 293.61947632 294.19992065 C293.56955888 308.76361741 292.85862688 323.00739234 290.3125 337.375 C290.14089355 338.35597656 289.96928711 339.33695313 289.79248047 340.34765625 C287.02980974 355.65467907 282.99571818 370.55144792 278.3125 385.375 C278.09625977 386.06239258 277.88001953 386.74978516 277.65722656 387.45800781 C261.57222235 437.64000932 227.34555672 487.36472879 185.3125 519.375 C184.31347656 520.16777344 183.31445312 520.96054687 182.28515625 521.77734375 C174.26823747 528.11521734 165.94006357 533.90064666 157.3125 539.375 C156.68988281 539.77154785 156.06726563 540.1680957 155.42578125 540.57666016 C118.30081696 563.95199205 77.6151166 576.96217293 34.3125 582.375 C34.3125 516.045 34.3125 449.715 34.3125 381.375 C60.7125 381.375 87.1125 381.375 114.3125 381.375 C115.9625 372.135 117.6125 362.895 119.3125 353.375 C120.25884036 348.19513297 121.20787711 343.01636748 122.171875 337.83984375 C122.52394012 335.9455941 122.52394012 335.9455941 122.88311768 334.01307678 C123.36636125 331.41527398 123.85013829 328.81757036 124.33447266 326.2199707 C124.95369041 322.89650318 125.57074143 319.5726479 126.18676376 316.24858761 C126.7840698 313.02865286 127.384403 309.80928264 127.984375 306.58984375 C128.20414001 305.40261215 128.42390503 304.21538055 128.65032959 302.99217224 C128.85434387 301.90154984 129.05835815 300.81092743 129.26855469 299.68725586 C129.44666687 298.73024277 129.62477905 297.77322968 129.80828857 296.78721619 C130.3125 294.375 130.3125 294.375 131.3125 291.375 C99.3025 291.375 67.2925 291.375 34.3125 291.375 C34.3125 224.15745708 34.3125 224.15745708 49.2578125 208.25 C61.74605093 196.85388889 77.75497184 193.20896236 94.22265625 193.2421875 C95.26771835 193.24123077 96.31278046 193.24027405 97.38951111 193.23928833 C99.59243836 193.23860961 101.79536764 193.24044237 103.99829102 193.24462891 C107.36674492 193.24998687 110.73506582 193.24467066 114.10351562 193.23828125 C116.24739613 193.23894198 118.39127655 193.24022304 120.53515625 193.2421875 C121.5404689 193.24016327 122.54578156 193.23813904 123.58155823 193.23605347 C124.52281052 193.23920563 125.46406281 193.24235779 126.43383789 193.24560547 C127.25735245 193.24640106 128.080867 193.24719666 128.92933655 193.24801636 C131.3125 193.375 131.3125 193.375 136.3125 194.375 C135.9825 167.315 135.6525 140.255 135.3125 112.375 C112.11613758 107.73572752 89.87141645 106.08039328 66.3125 105.9375 C65.33410156 105.92546539 64.35570312 105.91343079 63.34765625 105.90103149 C28.23850722 105.53101582 -9.22986717 114.073948 -35.30859375 138.91943359 C-68.60041216 171.76051264 -71.81575283 217.86483824 -72.3125 262 C-72.43625 271.69375 -72.56 281.3875 -72.6875 291.375 C-92.8175 291.375 -112.9475 291.375 -133.6875 291.375 C-133.6875 321.075 -133.6875 350.775 -133.6875 381.375 C-113.5575 381.375 -93.4275 381.375 -72.6875 381.375 C-72.6875 445.065 -72.6875 508.755 -72.6875 574.375 C-85.10968137 572.11642157 -85.10968137 572.11642157 -91.25 570 C-91.89219482 569.77868408 -92.53438965 569.55736816 -93.19604492 569.3293457 C-98.43440144 567.50562158 -103.58882733 565.55711891 -108.6875 563.375 C-109.30399414 563.11380371 -109.92048828 562.85260742 -110.55566406 562.58349609 C-134.62690923 552.33595848 -157.14028897 539.64911847 -177.6875 523.375 C-179.02941406 522.32119141 -179.02941406 522.32119141 -180.3984375 521.24609375 C-196.55085685 508.31027367 -211.97472651 493.71703183 -224.6875 477.375 C-225.76572021 476.03548598 -226.84525083 474.69702616 -227.92578125 473.359375 C-246.69795148 449.93838711 -261.55863143 423.61629133 -271.9309082 395.42333984 C-272.64494765 393.49020304 -273.39558856 391.57069948 -274.1484375 389.65234375 C-280.42025336 372.88416217 -284.83824743 355.03968018 -287.6875 337.375 C-287.83558105 336.51132812 -287.98366211 335.64765625 -288.13623047 334.7578125 C-292.90153066 306.11471643 -292.69607591 274.96181917 -287.6875 246.375 C-287.41413818 244.79114502 -287.41413818 244.79114502 -287.13525391 243.17529297 C-284.84756753 230.24231576 -281.89735954 217.81070352 -277.6875 205.375 C-276.99392003 203.08516612 -276.30615063 200.7935619 -275.625 198.5 C-273.92078982 192.98320894 -271.96656643 187.67848791 -269.6875 182.375 C-269.42485352 181.75560547 -269.16220703 181.13621094 -268.89160156 180.49804688 C-258.64683961 156.43134641 -245.96248375 133.91536053 -229.6875 113.375 C-228.97335937 112.46878906 -228.25921875 111.56257813 -227.5234375 110.62890625 C-214.32699049 94.19163569 -199.43678424 78.21981533 -182.6875 65.375 C-181.40174583 64.36143512 -180.11663876 63.34704904 -178.83203125 62.33203125 C-156.29050507 44.65528095 -130.02171177 27.43514061 -102.328125 19.2265625 C-99.53518804 18.37356626 -99.53518804 18.37356626 -96.35546875 16.92578125 C-92.5303791 15.30857082 -88.73533174 14.07888934 -84.75 12.9375 C-84.00911133 12.72359619 -83.26822266 12.50969238 -82.50488281 12.28930664 C-71.55074916 9.15972043 -60.55215856 6.45754047 -49.375 4.25 C-48.59479492 4.09136475 -47.81458984 3.93272949 -47.01074219 3.76928711 C-31.47230886 0.80639747 -15.78589702 -0.03221073 0 0 Z " fill="#0866FE" transform="translate(488.6875,197.625)"/>
<path d="M0 0 C3.76687864 3.76687864 4.67652988 5.14727622 6 10 C6.66 10 7.32 10 8 10 C9.18359375 11.57421875 9.18359375 11.57421875 10.4375 13.6875 C10.87320313 14.41582031 11.30890625 15.14414062 11.7578125 15.89453125 C12.16773438 16.58933594 12.57765625 17.28414063 13 18 C13.598125 18.94875 14.19625 19.8975 14.8125 20.875 C16 23 16 23 16 25 C16.66 25 17.32 25 18 25 C19.18359375 26.57421875 19.18359375 26.57421875 20.4375 28.6875 C20.87320313 29.41582031 21.30890625 30.14414062 21.7578125 30.89453125 C22.16773438 31.58933594 22.57765625 32.28414063 23 33 C23.598125 33.94875 24.19625 34.8975 24.8125 35.875 C26 38 26 38 26 40 C26.66 40 27.32 40 28 40 C28.99 42.97 28.99 42.97 30 46 C30.66 46 31.32 46 32 46 C33.18359375 47.57421875 33.18359375 47.57421875 34.4375 49.6875 C35.09105469 50.77998047 35.09105469 50.77998047 35.7578125 51.89453125 C36.16773438 52.58933594 36.57765625 53.28414063 37 54 C37.598125 54.94875 38.19625 55.8975 38.8125 56.875 C40 59 40 59 40 61 C40.66 61 41.32 61 42 61 C42.99 63.97 42.99 63.97 44 67 C44.66 67 45.32 67 46 67 C49 71.38461538 49 71.38461538 49 74 C49.66 74 50.32 74 51 74 C51.66 75.98 52.32 77.96 53 80 C53.66 80 54.32 80 55 80 C56.18359375 81.57421875 56.18359375 81.57421875 57.4375 83.6875 C57.87320313 84.41582031 58.30890625 85.14414062 58.7578125 85.89453125 C59.16773438 86.58933594 59.57765625 87.28414063 60 88 C60.598125 88.94875 61.19625 89.8975 61.8125 90.875 C63 93 63 93 63 95 C63.66 95 64.32 95 65 95 C66.18359375 96.57421875 66.18359375 96.57421875 67.4375 98.6875 C67.87320313 99.41582031 68.30890625 100.14414062 68.7578125 100.89453125 C69.16773438 101.58933594 69.57765625 102.28414063 70 103 C70.598125 103.94875 71.19625 104.8975 71.8125 105.875 C73 108 73 108 73 110 C73.66 110 74.32 110 75 110 C75.66 111.98 76.32 113.96 77 116 C77.66 116 78.32 116 79 116 C80.18359375 117.57421875 80.18359375 117.57421875 81.4375 119.6875 C81.87320313 120.41582031 82.30890625 121.14414062 82.7578125 121.89453125 C83.16773438 122.58933594 83.57765625 123.28414063 84 124 C84.598125 124.94875 85.19625 125.8975 85.8125 126.875 C87 129 87 129 87 131 C87.66 131 88.32 131 89 131 C90.18359375 132.57421875 90.18359375 132.57421875 91.4375 134.6875 C91.87320313 135.41582031 92.30890625 136.14414062 92.7578125 136.89453125 C93.16773438 137.58933594 93.57765625 138.28414062 94 139 C94.598125 139.94875 95.19625 140.8975 95.8125 141.875 C97 144 97 144 97 146 C97.66 146 98.32 146 99 146 C100.18359375 147.57421875 100.18359375 147.57421875 101.4375 149.6875 C101.87320313 150.41582031 102.30890625 151.14414062 102.7578125 151.89453125 C103.16773438 152.58933594 103.57765625 153.28414062 104 154 C104.598125 154.94875 105.19625 155.8975 105.8125 156.875 C107 159 107 159 107 161 C107.66 161 108.32 161 109 161 C109.66 162.98 110.32 164.96 111 167 C111.66 167 112.32 167 113 167 C114.47309111 169.10019014 115.81309635 171.17767729 117.125 173.375 C117.49753906 173.97828125 117.87007812 174.5815625 118.25390625 175.203125 C121 179.72965316 121 179.72965316 121 182 C121.66 182 122.32 182 123 182 C124.7265625 184.3359375 124.7265625 184.3359375 126.625 187.375 C127.25664063 188.37273437 127.88828125 189.37046875 128.5390625 190.3984375 C130 193 130 193 130 195 C130.66 195 131.32 195 132 195 C135 200.75 135 200.75 135 203 C135.66 203 136.32 203 137 203 C138.7265625 205.3359375 138.7265625 205.3359375 140.625 208.375 C141.25664063 209.37273437 141.88828125 210.37046875 142.5390625 211.3984375 C144 214 144 214 144 216 C144.66 216 145.32 216 146 216 C147.25390625 217.71484375 147.25390625 217.71484375 148.5625 219.9375 C150.0750407 222.62705453 150.0750407 222.62705453 152 225 C152.26225807 230.67601391 151.67643138 235.67658537 150.375 241.1875 C150.1989624 241.95288086 150.0229248 242.71826172 149.84155273 243.50683594 C135.14789019 305.84358611 100.57935383 366.71974693 49 406 C47.50146484 407.18916016 47.50146484 407.18916016 45.97265625 408.40234375 C37.95573747 414.74021734 29.62756357 420.52564666 21 426 C20.37738281 426.39654785 19.75476563 426.7930957 19.11328125 427.20166016 C-18.01168304 450.57699205 -58.6973834 463.58717293 -102 469 C-102 402.67 -102 336.34 -102 268 C-75.6 268 -49.2 268 -22 268 C-19.525 254.14 -19.525 254.14 -17 240 C-16.05365964 234.82013297 -15.10462289 229.64136748 -14.140625 224.46484375 C-13.90591492 223.20201065 -13.67120483 221.93917755 -13.42938232 220.63807678 C-12.94613875 218.04027398 -12.46236171 215.44257036 -11.97802734 212.8449707 C-11.35880959 209.52150318 -10.74175857 206.1976479 -10.12573624 202.87358761 C-9.5284302 199.65365286 -8.928097 196.43428264 -8.328125 193.21484375 C-8.10835999 192.02761215 -7.88859497 190.84038055 -7.66217041 189.61717224 C-7.45815613 188.52654984 -7.25414185 187.43592743 -7.04394531 186.31225586 C-6.86583313 185.35524277 -6.68772095 184.39822968 -6.50421143 183.41221619 C-6 181 -6 181 -5 178 C-37.01 178 -69.02 178 -102 178 C-102 110.78245708 -102 110.78245708 -87.0546875 94.875 C-74.56644907 83.47888889 -58.55752816 79.83396236 -42.08984375 79.8671875 C-41.04478165 79.86623077 -39.99971954 79.86527405 -38.92298889 79.86428833 C-36.72006164 79.86360961 -34.51713236 79.86544237 -32.31420898 79.86962891 C-28.94575508 79.87498687 -25.57743418 79.86967066 -22.20898438 79.86328125 C-20.06510387 79.86394198 -17.92122345 79.86522304 -15.77734375 79.8671875 C-14.7720311 79.86516327 -13.76671844 79.86313904 -12.73094177 79.86105347 C-11.78968948 79.86420563 -10.84843719 79.86735779 -9.87866211 79.87060547 C-9.05514755 79.87140106 -8.231633 79.87219666 -7.38316345 79.87301636 C-5 80 -5 80 0 81 C0 54.27 0 27.54 0 0 Z " fill="#0647B2" transform="translate(625,311)"/>
<path d="M0 0 C19.8 0 39.6 0 60 0 C60 29.04 60 58.08 60 88 C59.01 87.67 58.02 87.34 57 87 C55.8125 83.9375 55.8125 83.9375 55 81 C54.34 81 53.68 81 53 81 C52.34 79.02 51.68 77.04 51 75 C50.34 75 49.68 75 49 75 C48.731875 74.401875 48.46375 73.80375 48.1875 73.1875 C47.14160642 70.9953732 47.14160642 70.9953732 45.5625 69.625 C43.05101938 67.01306015 41 63.68384316 41 60 C40.34 60 39.68 60 39 60 C37.81640625 58.42578125 37.81640625 58.42578125 36.5625 56.3125 C36.12679687 55.58417969 35.69109375 54.85585938 35.2421875 54.10546875 C34.83226562 53.41066406 34.42234375 52.71585938 34 52 C33.401875 51.05125 32.80375 50.1025 32.1875 49.125 C31 47 31 47 31 45 C30.34 45 29.68 45 29 45 C28.34 43.02 27.68 41.04 27 39 C26.34 39 25.68 39 25 39 C22 34.61538462 22 34.61538462 22 32 C21.34 32 20.68 32 20 32 C17 26.25 17 26.25 17 24 C16.34 24 15.68 24 15 24 C13.59431196 22.05017465 12.2704964 20.04049422 11 18 C10.4225 17.0925 9.845 16.185 9.25 15.25 C8 13 8 13 8 11 C7.34 11 6.68 11 6 11 C3 5.25 3 5.25 3 3 C2.34 3 1.68 3 1 3 C0.67 2.01 0.34 1.02 0 0 Z " fill="#0747B2" transform="translate(356,580)"/>
<path d="M0 0 C0.66 0.33 1.32 0.66 2 1 C-1.96 4.96 -5.92 8.92 -10 13 C-10 8.41771462 -7.08388033 6.1816619 -4 3 C-1.625 1.0625 -1.625 1.0625 0 0 Z " fill="#2A60BC" transform="translate(544,401)"/>
</svg>
